<?xml version="1.0" encoding="utf-8"?>
<!-- Generator: Adobe Illustrator 28.2.0, SVG Export Plug-In . SVG Version: 6.00 Build 0)  -->
<svg version="1.1" id="Layer_1" xmlns="http://www.w3.org/2000/svg" xmlns:xlink="http://www.w3.org/1999/xlink" x="0px" y="0px"
	 viewBox="0 0 441.9 400" style="enable-background:new 0 0 441.9 400;" xml:space="preserve">
<style type="text/css">
	.st0{fill:#2E6B57;}
</style>
<g>
	<g>
		<path class="st0" d="M314.3,0.2h-32c-6.4,0-14.1,5.2-17,11.6l-11.5,30.2l-13,34.1l3.8-34.2l3.5-30.1c0-6.4-5.2-11.6-11.6-11.6h-32
			c-6.4,0-11.6,5.2-11.6,11.6l2.6,30.1l2.6,29.9l-10.6-29.9l-10.6-30.2c-3-6.4-10.6-11.6-17-11.6h-32c-6.4,0-9.2,5.2-6.3,11.6
			l35.6,64.5l0,0l0.3,0.5l12.2,20.9l4,7l0,0c9.2,16,26.6,26.8,46.2,26.8l0,0c17.9,0,33.7-8.9,43.4-22.4l0,0l0.2-0.2
			c1.6-2.1,2.8-4.3,4-6.6l2.4-4l13.7-22.6l37-63.9C323.5,5.4,320.7,0.2,314.3,0.2z"/>
		<path class="st0" d="M127.6,399.8h32c6.4,0,14.1-5.2,17-11.6l11.5-30.2l13-34.1l-3.8,34.2l-3.5,30.1c0,6.4,5.2,11.6,11.6,11.6h32
			c6.4,0,11.6-5.2,11.6-11.6l-2.6-30.1l-2.6-29.9l10.6,29.9l10.6,30.2c3,6.4,10.6,11.6,17,11.6h32c6.4,0,9.2-5.2,6.3-11.6
			l-35.6-64.5l0,0l-0.3-0.5l-12.2-20.9l-4-7l0,0c-9.2-16-26.6-26.8-46.2-26.8l0,0c-17.9,0-33.7,8.9-43.4,22.4l0,0l-0.2,0.2
			c-1.6,2.1-2.8,4.3-4,6.6l-2.4,4l-13.7,22.6l-37,63.9C118.4,394.6,121.2,399.8,127.6,399.8z"/>
	</g>
	<g>
		<path class="st0" d="M94.6,19.3l-16,27.6c-3.1,5.6-2.4,14.8,1.6,20.5l20.5,25.2l22.9,28.3l-27.8-20.5L71.5,82.4
			c-5.6-3.1-12.7-1.2-15.8,4.2l-16,27.6c-3.1,5.6-1.2,12.7,4.2,15.8l27.5,12.9l27.1,12.7l-31.1-5.7l-31.5-5.9
			c-7-0.7-15.5,3.5-18.6,8.9l-16,27.6c-3.1,5.6,0,10.6,7,11.1l73.7,1.4l0,0h0.7h24.2h8.2l0,0c18.4,0,36.5-9.6,46.2-26.6l0,0
			c8.9-15.5,9.2-33.7,2.3-48.8l0,0l-0.2-0.2c-1-2.3-2.3-4.5-3.6-6.8l-2.3-4.2l-12.7-23.1l-36.8-64.1C103.7,13.9,97.7,13.7,94.6,19.3
			z"/>
		<path class="st0" d="M347.3,380.7l16-27.6c3.1-5.6,2.4-14.8-1.6-20.5l-20.5-25.2l-22.8-28.3l27.6,20.5l24.3,18.1
			c5.6,3.1,12.7,1.2,15.8-4.2l16-27.6c3.1-5.6,1.2-12.7-4.2-15.8l-27.5-12.9l-27.1-12.7l31.1,5.7l31.5,5.9c7,0.7,15.5-3.5,18.6-8.9
			l16-27.6c3.1-5.6,0-10.6-7-11.1l-73.7-1.4l0,0h-0.7h-24.2h-8.2l0,0c-18.4,0-36.5,9.6-46.2,26.6l0,0c-8.9,15.5-9.2,33.7-2.3,48.8
			l0,0l0.2,0.2c1,2.3,2.3,4.5,3.6,6.8l2.3,4.2l12.7,23.1l36.8,64.1C338.2,386.1,344.1,386.3,347.3,380.7z"/>
	</g>
	<g>
		<path class="st0" d="M1.3,219.1l16,27.6c3.1,5.6,11.5,9.6,18.6,8.9l32-5.2l36-5.7l-31.5,13.7l-27.8,12.2
			c-5.6,3.1-7.5,10.3-4.2,15.8l16,27.6c3.1,5.6,10.3,7.5,15.8,4.2L97.1,301l24.7-17.2l-20.5,24l-20.9,24.3c-4,5.7-4.7,14.9-1.6,20.5
			l16,27.6c3.1,5.6,9,5.4,13.2-0.5l38.1-63.1l0,0l0.3-0.5l12-20.9l4-7l0,0c9.2-16,9.9-36.3,0.2-53.3l0,0
			c-8.9-15.5-24.5-24.7-41.2-26.4l0,0h-0.2c-2.6-0.2-5.2-0.3-7.6-0.2l-4.7-0.2l-26.2-0.5l-74-0.2C1.1,208.5-2,213.6,1.3,219.1z"/>
		<path class="st0" d="M440.6,180.9l-16-27.6c-3.1-5.6-11.5-9.6-18.6-8.9l-32,5.2l-36,5.7l31.5-13.7l27.8-12.2
			c5.6-3.1,7.5-10.3,4.2-15.8l-16-27.6c-3.1-5.6-10.3-7.5-15.8-4.2L344.8,99l-24.7,17.2l20.5-24l20.9-24.3c4-5.7,4.7-14.9,1.6-20.5
			l-16-27.6c-3.1-5.6-9-5.4-13.2,0.5l-38.1,63.1l0,0l-0.3,0.5l-12,20.9l-4,7l0,0c-9.2,16-9.9,36.3-0.2,53.3l0,0
			c8.9,15.5,24.5,24.7,41.2,26.4l0,0h0.2c2.6,0.2,5.2,0.3,7.6,0.2l4.7,0.2l26.2,0.5l74,0.2C440.8,191.5,443.9,186.4,440.6,180.9z"/>
	</g>
</g>
</svg>
