<?xml version="1.0" encoding="utf-8"?>
<!-- Generator: Adobe Illustrator 28.2.0, SVG Export Plug-In . SVG Version: 6.00 Build 0)  -->
<svg version="1.1" id="Layer_1" xmlns="http://www.w3.org/2000/svg" xmlns:xlink="http://www.w3.org/1999/xlink" x="0px" y="0px"
	 viewBox="0 0 400 66.3" style="enable-background:new 0 0 400 66.3;" xml:space="preserve">
<style type="text/css">
	.st0{fill:#2E6B57;}
</style>
<g>
	<path class="st0" d="M342.1,5.5c-1.9,0.5-3.5,2-4.2,3.8c-1,2.5-0.3,5.7,1.8,7.4c2.6,2.3,7,2.1,9.3-0.5c2.4-2.5,2.3-6.9-0.3-9.3
		C347,5.3,344.3,4.8,342.1,5.5z"/>
	<path class="st0" d="M290.5,56.8c-1.4-0.2-2.8-0.9-3.6-2.1c-1-1.6-1-3.5-1-5.2c0-5.4,0-10.8,0-16.3c4.9,0,9.8,0,14.6,0
		c0-3,0-5.9,0-8.9c-4.9,0-9.8,0-14.6,0c0-4.8,0-9.6,0-14.5c-3.5,1.7-7,3.5-10.5,5.2c0,3.1,0,6.1,0,9.2c-2.8,0-5.6,0-8.4,0
		c0,3,0,5.9,0,8.9c2.8,0,5.6,0,8.4,0c0,6.5,0,13.1,0,19.6c0,3.5,1,7.2,3.7,9.7c2.9,2.7,7,3.7,10.8,3.7c4.5,0.1,9.4-1,12.8-4
		c-1.4-2.5-2.7-5-4.1-7.5C296.4,56.5,293.4,57.1,290.5,56.8z"/>
	<path class="st0" d="M211,27c-3.9-3.2-9.3-4.2-14.1-3.4c-3.8,0.6-7.4,2.7-9.3,6.1c0-1.8,0-3.6,0-5.4c-3.4,0-6.8,0-10.2,0
		c0,10.4,0,20.8,0,31.3c-0.6,0-1.3,0-1.9-0.1c-1.9-0.3-3.6-1.7-4.3-3.4c-0.9-2-0.7-4.2-0.7-6.2c0-7.2,0-14.4,0-21.5
		c-3.2,0-6.5,0-9.7,0c0,1.2,0,2.5,0,3.7c-2.3-2.6-5.6-4.2-9.1-4.3c-3.9-0.3-7.8,1.3-10.7,3.8c-4.2,3.6-6.9,8.8-7.9,14.2
		c-0.8,4.5-0.4,9.2,1.4,13.3c-2.2,0.7-4.9,0.9-6.9-0.6c-2-1.5-2.6-4.1-2.6-6.4c0-16,0-32.1,0-48.1c-3.2,0-6.5,0-9.7,0
		c0,14.9,0,29.7,0,44.6c0,2.7-0.1,5.3,0.4,8c-5.7,2.9-12.2,3.5-18.4,2.9c-3.4-0.3-7.1-0.9-9.7-3.3c4.1-0.3,8.1-1,11.9-2.4
		c3.3-1.3,6.5-3.2,8.6-6.1c2.5-3.4,3-8.2,1.3-12.1c-1.1-2.6-3.2-4.7-5.6-6c-3.2-1.7-7-2.2-10.6-1.7c-4.3,0.6-8.3,2.9-11.3,6.1
		c-3.7,3.9-5.9,9.3-6.3,14.7c-1,0.1-2,0.2-3,0.2c0.6-3.6,0.5-7.3-0.3-10.9c-0.8-3.4-2.5-6.8-5.6-8.6c-2.9-1.7-6.5-1.9-9.7-1.2
		c-3.6,0.8-6.8,3.4-8.3,6.9c-1.6,3.6-1.2,7.8,0.5,11.3c1.9,4.2,5.6,7.3,9.7,9.5c-1.7,2-4,3.7-6.7,3.9c-2.2,0.1-4.1-1.4-5.4-3.1
		c-2.2-3-3.4-6.5-4.4-10c-1-3.7-1.7-7.5-1.9-11.3c0.2-2.3,0.3-4.6,0.3-6.9c-3.2,0-6.5,0-9.7,0c-0.1,7-1.1,14-3.2,20.8
		c-1,3-2.2,6-4.2,8.5c-1.1,1.3-2.7,2.4-4.4,2c-2-0.5-3.3-2.2-4.3-3.9c-2-3.7-3-7.7-3.7-11.8c-0.9-5.1-1.4-10.3-1.4-15.5
		c-3.2,0-6.5,0-9.7,0c0.1,9.1,1,18.3,4.2,26.8c1.5,4,3.7,8,6.9,10.8c2.3,2.1,5.4,3.3,8.5,3.4c3.1,0.1,6.2-1.2,8.5-3.2
		c3.1-2.6,5.3-6.2,7-9.9c2.1,4.4,5.1,8.7,9.4,11.2c3.9,2.2,8.6,2.4,12.8,0.9c4.7-1.6,8.6-5.2,11.2-9.3c3,0.5,6,0.5,9-0.1
		c1.4,2.4,3.4,4.4,5.7,5.9c4.5,2.9,10,4.1,15.3,4.4c7.3,0.4,14.9-0.7,21.5-4.2c2.8,2.9,6.9,4.4,11,4.3c3.4-0.1,6.9-0.9,9.6-2.9
		c3.8,2.5,8.7,3.6,13.2,2.5c4-1,7.1-4.2,8.8-7.8c1.5,2.9,3.9,5.3,6.8,6.7c3.3,1.6,7.1,1.9,10.7,1.2c2.9-0.6,5.8-1.8,7.6-4.2
		c0-2.4,0-4.7,0-7.1c0,0,0,0,0,0c0-7.7,0-3.8,0-11.5c0-2.3,0.7-4.6,2.2-6.3c1.6-1.8,4-2.7,6.3-2.8c2.5-0.2,5.3,0.5,7.2,2.3
		c1.8,1.7,2.5,4.2,2.5,6.6c0,7.8,0,15.6,0,23.3c3.5,0,7,0,10.5,0c0-8.6,0-17.2,0-25.8C216.5,34.8,214.7,30,211,27z M62.9,43.6
		c-1.8-0.7-3.7-1.7-4.7-3.3c-0.9-1.7-1.2-4-0.1-5.6c0.7-1.1,2.4-1.6,3.4-0.7c1,0.9,1.3,2.4,1.5,3.8C63.2,39.6,63.3,41.6,62.9,43.6z
		 M90.8,34.9c2.2-1.4,5-1.9,7.6-1.2c1.2,0.3,2.3,1.4,2.2,2.7c0,2-1.8,3.3-3.5,4c-3.6,1.6-7.6,1.9-11.5,2.1
		C86.4,39.5,88.1,36.7,90.8,34.9z M159,50.9c-1,2.1-2.9,3.8-5.2,4.4c-3.8,0.9-8.4-0.4-10.3-3.9c-1.6-2.9-1.5-6.5-0.6-9.6
		c1.1-3.8,4-7.4,8-8.2c2.5-0.5,5.4-0.1,7.3,1.8c1.7,1.7,2.2,4.1,2.4,6.4C160.8,44.9,160.5,48.1,159,50.9z"/>
	<path class="st0" d="M324.6,23.8c-3.3,0.7-6.1,3-7.6,6c0-1.8,0-3.7,0-5.5c-3.4,0-6.8,0-10.2,0c0,13.6,0,27.3,0,40.9
		c3.5,0,7,0,10.5,0c0-7,0-14.1,0-21.1c0-2.2,0-4.5,1-6.5c1.2-2.6,4-4.2,6.8-4.6c2.7-0.3,5.5,0,8.1,1c0.4-3.2,0.8-6.3,1.3-9.5
		C331.4,23.2,327.9,23.1,324.6,23.8z"/>
	<path class="st0" d="M389.5,24.3c0,1.7,0,3.4,0,5.1c-2.1-2.6-5.1-4.6-8.4-5.5c-4.2-1.1-8.7-0.7-12.7,0.9c-4,1.6-7.4,4.6-9.5,8.4
		c-2.7,4.8-3.3,10.6-2.5,16c0.8,5,3.2,9.7,7.2,12.9c4.3,3.4,10,4.7,15.4,3.9c4.1-0.6,7.9-2.7,10.5-5.9c0,1.7,0,3.4,0,5.1
		c3.5,0,7,0,10.5,0c0-13.6,0-27.3,0-40.9C396.5,24.3,393,24.3,389.5,24.3z M385.5,54.2c-4.6,3.9-12.3,3.3-16.1-1.4
		c-3.4-4.3-3.5-10.9-0.4-15.3c1.5-2.1,3.8-3.7,6.4-4.2c3.2-0.7,6.8-0.2,9.5,1.8C390.8,39.4,391.1,49.4,385.5,54.2z"/>
	<path class="st0" d="M251.2,47.5c0,2.4-0.8,4.9-2.5,6.5c-1.8,1.8-4.3,2.5-6.8,2.5c-2.4,0-5-0.8-6.6-2.6c-1.6-1.7-2.2-4.1-2.2-6.4
		c0-7.7,0-15.5,0-23.2c-3.5,0-7,0-10.5,0c0,8.7,0,17.3,0,26c0.1,4.6,1.9,9.4,5.6,12.4c3.9,3.2,9.2,4.1,14.1,3.3
		c3.7-0.6,7.4-2.8,9.2-6.1c0,1.8,0,3.6,0,5.4c3.4,0,6.8,0,10.2,0c0-13.6,0-27.3,0-40.9c-3.5,0-7,0-10.5,0
		C251.2,32.1,251.2,39.8,251.2,47.5z"/>
	<path class="st0" d="M338.9,65.3c3.5,0,7,0,10.5,0c0-13.6,0-27.3,0-40.9c-3.5,0-7,0-10.5,0C338.9,38,338.9,51.6,338.9,65.3z"/>
</g>
</svg>
