<?xml version="1.0" encoding="utf-8"?>
<!-- Generator: Adobe Illustrator 28.2.0, SVG Export Plug-In . SVG Version: 6.00 Build 0)  -->
<svg version="1.1" id="Layer_1" xmlns="http://www.w3.org/2000/svg" xmlns:xlink="http://www.w3.org/1999/xlink" x="0px" y="0px"
	 viewBox="0 0 740 500" style="enable-background:new 0 0 740 500;" xml:space="preserve">
<style type="text/css">
	.st0{fill:#FBF3E3;}
	.st1{fill:#235244;}
	.st2{fill:#F6A20E;}
	.st3{fill:#3F3F3F;}
	.st4{fill:#F0E8E0;}
	.st5{fill:#ABCDBD;}
</style>
<g>
	<path class="st0" d="M270.4,489.6h224.9c10.5,0,19.1-8.6,19.1-19.1v-441c0-10.5-8.6-19.1-19.1-19.1H270.4
		c-10.5,0-19.1,8.6-19.1,19.1v441C251.3,481,259.9,489.6,270.4,489.6z"/>
	<path class="st1" d="M495.3,490.2H270.4c-10.8,0-19.7-8.8-19.7-19.7v-441c0-10.8,8.8-19.7,19.7-19.7h224.9
		c10.8,0,19.7,8.8,19.7,19.7v441C514.9,481.4,506.1,490.2,495.3,490.2z M270.4,11c-10.2,0-18.5,8.3-18.5,18.5v441
		c0,10.2,8.3,18.5,18.5,18.5h224.9c10.2,0,18.5-8.3,18.5-18.5v-441c0-10.2-8.3-18.5-18.5-18.5H270.4z"/>
	<path class="st2" d="M278.7,474.4H487c8,0,14.5-6.5,14.5-14.5V38.7c0-8-6.5-14.5-14.5-14.5H278.7c-8,0-14.5,6.5-14.5,14.5v421.2
		C264.2,467.9,270.7,474.4,278.7,474.4z"/>
	<path class="st1" d="M407.5,38.4h-52.3c-0.3,0-0.6-0.3-0.6-0.6c0-0.3,0.3-0.6,0.6-0.6h52.3c0.3,0,0.6,0.3,0.6,0.6
		C408.1,38.2,407.8,38.4,407.5,38.4z"/>
	<path class="st0" d="M543.9,395h-233c-9.4,0-17.1-7.6-17.1-17.1V214.8H561v163.1C561,387.3,553.4,395,543.9,395z"/>
	<path class="st0" d="M532.3,395H310.9c-9.4,0-17.1-7.6-17.1-17.1V214.8L532.3,395z"/>
	<g>
		<path class="st0" d="M293.9,214.8H561v163.1c0,9.4-7.6,17.1-17.1,17.1h-11.7L293.9,214.8z"/>
		<path class="st3" d="M543.9,395.6h-11.7c-0.3,0-0.6-0.3-0.6-0.6c0-0.3,0.3-0.6,0.6-0.6h11.7c9.1,0,16.5-7.4,16.5-16.5V215.4H293.9
			c-0.3,0-0.6-0.3-0.6-0.6s0.3-0.6,0.6-0.6H561c0.3,0,0.6,0.3,0.6,0.6v163.1C561.6,387.6,553.7,395.6,543.9,395.6z"/>
	</g>
	<path class="st0" d="M293.9,214.8v-42.5c0-9.4,7.6-17.1,17.1-17.1h190.5L293.9,214.8z"/>
	<g>
		<path class="st0" d="M501.5,155.3h42.5c9.4,0,17.1,7.6,17.1,17.1v42.5H293.9L501.5,155.3z"/>
		<path class="st3" d="M561,215.4H293.9c-0.3,0-0.6-0.3-0.6-0.6s0.3-0.6,0.6-0.6h266.6v-41.9c0-9.1-7.4-16.5-16.5-16.5h-42.5
			c-0.3,0-0.6-0.3-0.6-0.6s0.3-0.6,0.6-0.6h42.5c9.7,0,17.6,7.9,17.6,17.6v42.5C561.6,215.1,561.3,215.4,561,215.4z"/>
	</g>
	<rect x="317.9" y="170.4" class="st0" width="219.1" height="33"/>
	<path class="st0" d="M348.4,278.9H324c-3.4,0-6.1-2.7-6.1-6.1v-24.4c0-3.4,2.7-6.1,6.1-6.1h24.4c3.4,0,6.1,2.7,6.1,6.1v24.4
		C354.5,276.1,351.8,278.9,348.4,278.9z"/>
	<path class="st1" d="M348.4,279.4H324c-3.7,0-6.7-3-6.7-6.7v-24.4c0-3.7,3-6.7,6.7-6.7h24.4c3.7,0,6.7,3,6.7,6.7v24.4
		C355.1,276.4,352.1,279.4,348.4,279.4z M324,242.9c-3,0-5.5,2.5-5.5,5.5v24.4c0,3,2.5,5.5,5.5,5.5h24.4c3,0,5.5-2.5,5.5-5.5v-24.4
		c0-3-2.5-5.5-5.5-5.5H324z"/>
	<path class="st0" d="M393.9,278.9h-24.4c-3.4,0-6.1-2.7-6.1-6.1v-24.4c0-3.4,2.7-6.1,6.1-6.1h24.4c3.4,0,6.1,2.7,6.1,6.1v24.4
		C400,276.1,397.3,278.9,393.9,278.9z"/>
	<path class="st1" d="M393.9,279.4h-24.4c-3.7,0-6.7-3-6.7-6.7v-24.4c0-3.7,3-6.7,6.7-6.7h24.4c3.7,0,6.7,3,6.7,6.7v24.4
		C400.6,276.4,397.6,279.4,393.9,279.4z M369.5,242.9c-3,0-5.5,2.5-5.5,5.5v24.4c0,3,2.5,5.5,5.5,5.5h24.4c3,0,5.5-2.5,5.5-5.5
		v-24.4c0-3-2.5-5.5-5.5-5.5H369.5z"/>
	<path class="st0" d="M439.4,278.9H415c-3.4,0-6.1-2.7-6.1-6.1v-24.4c0-3.4,2.7-6.1,6.1-6.1h24.4c3.4,0,6.1,2.7,6.1,6.1v24.4
		C445.5,276.1,442.8,278.9,439.4,278.9z"/>
	<path class="st1" d="M439.4,279.4H415c-3.7,0-6.7-3-6.7-6.7v-24.4c0-3.7,3-6.7,6.7-6.7h24.4c3.7,0,6.7,3,6.7,6.7v24.4
		C446.1,276.4,443.1,279.4,439.4,279.4z M415,242.9c-3,0-5.5,2.5-5.5,5.5v24.4c0,3,2.5,5.5,5.5,5.5h24.4c3,0,5.5-2.5,5.5-5.5v-24.4
		c0-3-2.5-5.5-5.5-5.5H415z"/>
	<path class="st0" d="M484.9,278.9h-24.4c-3.4,0-6.1-2.7-6.1-6.1v-24.4c0-3.4,2.7-6.1,6.1-6.1h24.4c3.4,0,6.1,2.7,6.1,6.1v24.4
		C491,276.1,488.3,278.9,484.9,278.9z"/>
	<path class="st1" d="M484.9,279.4h-24.4c-3.7,0-6.7-3-6.7-6.7v-24.4c0-3.7,3-6.7,6.7-6.7h24.4c3.7,0,6.7,3,6.7,6.7v24.4
		C491.6,276.4,488.6,279.4,484.9,279.4z M460.6,242.9c-3,0-5.5,2.5-5.5,5.5v24.4c0,3,2.5,5.5,5.5,5.5h24.4c3,0,5.5-2.5,5.5-5.5
		v-24.4c0-3-2.5-5.5-5.5-5.5H460.6z"/>
	<path class="st0" d="M348.4,323.2H324c-3.4,0-6.1-2.7-6.1-6.1v-24.4c0-3.4,2.7-6.1,6.1-6.1h24.4c3.4,0,6.1,2.7,6.1,6.1v24.4
		C354.5,320.4,351.8,323.2,348.4,323.2z"/>
	<path class="st1" d="M348.4,323.7H324c-3.7,0-6.7-3-6.7-6.7v-24.4c0-3.7,3-6.7,6.7-6.7h24.4c3.7,0,6.7,3,6.7,6.7v24.4
		C355.1,320.8,352.1,323.7,348.4,323.7z M324,287.2c-3,0-5.5,2.5-5.5,5.5v24.4c0,3,2.5,5.5,5.5,5.5h24.4c3,0,5.5-2.5,5.5-5.5v-24.4
		c0-3-2.5-5.5-5.5-5.5H324z"/>
	<path class="st0" d="M393.9,323.2h-24.4c-3.4,0-6.1-2.7-6.1-6.1v-24.4c0-3.4,2.7-6.1,6.1-6.1h24.4c3.4,0,6.1,2.7,6.1,6.1v24.4
		C400,320.4,397.3,323.2,393.9,323.2z"/>
	<path class="st1" d="M393.9,323.7h-24.4c-3.7,0-6.7-3-6.7-6.7v-24.4c0-3.7,3-6.7,6.7-6.7h24.4c3.7,0,6.7,3,6.7,6.7v24.4
		C400.6,320.8,397.6,323.7,393.9,323.7z M369.5,287.2c-3,0-5.5,2.5-5.5,5.5v24.4c0,3,2.5,5.5,5.5,5.5h24.4c3,0,5.5-2.5,5.5-5.5
		v-24.4c0-3-2.5-5.5-5.5-5.5H369.5z"/>
	<path class="st0" d="M439.4,323.2H415c-3.4,0-6.1-2.7-6.1-6.1v-24.4c0-3.4,2.7-6.1,6.1-6.1h24.4c3.4,0,6.1,2.7,6.1,6.1v24.4
		C445.5,320.4,442.8,323.2,439.4,323.2z"/>
	<path class="st1" d="M439.4,323.7H415c-3.7,0-6.7-3-6.7-6.7v-24.4c0-3.7,3-6.7,6.7-6.7h24.4c3.7,0,6.7,3,6.7,6.7v24.4
		C446.1,320.8,443.1,323.7,439.4,323.7z M415,287.2c-3,0-5.5,2.5-5.5,5.5v24.4c0,3,2.5,5.5,5.5,5.5h24.4c3,0,5.5-2.5,5.5-5.5v-24.4
		c0-3-2.5-5.5-5.5-5.5H415z"/>
	<path class="st0" d="M348.4,367.5H324c-3.4,0-6.1-2.7-6.1-6.1V337c0-3.4,2.7-6.1,6.1-6.1h24.4c3.4,0,6.1,2.7,6.1,6.1v24.4
		C354.5,364.7,351.8,367.5,348.4,367.5z"/>
	<path class="st1" d="M348.4,368.1H324c-3.7,0-6.7-3-6.7-6.7V337c0-3.7,3-6.7,6.7-6.7h24.4c3.7,0,6.7,3,6.7,6.7v24.4
		C355.1,365.1,352.1,368.1,348.4,368.1z M324,331.5c-3,0-5.5,2.5-5.5,5.5v24.4c0,3,2.5,5.5,5.5,5.5h24.4c3,0,5.5-2.5,5.5-5.5V337
		c0-3-2.5-5.5-5.5-5.5H324z"/>
	<path class="st0" d="M393.9,367.5h-24.4c-3.4,0-6.1-2.7-6.1-6.1V337c0-3.4,2.7-6.1,6.1-6.1h24.4c3.4,0,6.1,2.7,6.1,6.1v24.4
		C400,364.7,397.3,367.5,393.9,367.5z"/>
	<path class="st1" d="M393.9,368.1h-24.4c-3.7,0-6.7-3-6.7-6.7V337c0-3.7,3-6.7,6.7-6.7h24.4c3.7,0,6.7,3,6.7,6.7v24.4
		C400.6,365.1,397.6,368.1,393.9,368.1z M369.5,331.5c-3,0-5.5,2.5-5.5,5.5v24.4c0,3,2.5,5.5,5.5,5.5h24.4c3,0,5.5-2.5,5.5-5.5V337
		c0-3-2.5-5.5-5.5-5.5H369.5z"/>
	<path class="st0" d="M484.9,367.5h-24.4c-3.4,0-6.1-2.7-6.1-6.1v-68.7c0-3.4,2.7-6.1,6.1-6.1h24.4c3.4,0,6.1,2.7,6.1,6.1v68.7
		C491,364.7,488.3,367.5,484.9,367.5z"/>
	<path class="st1" d="M484.9,368.1h-24.4c-3.7,0-6.7-3-6.7-6.7v-68.7c0-3.7,3-6.7,6.7-6.7h24.4c3.7,0,6.7,3,6.7,6.7v68.7
		C491.6,365.1,488.6,368.1,484.9,368.1z M460.6,287.2c-3,0-5.5,2.5-5.5,5.5v68.7c0,3,2.5,5.5,5.5,5.5h24.4c3,0,5.5-2.5,5.5-5.5
		v-68.7c0-3-2.5-5.5-5.5-5.5H460.6z"/>
	<path class="st0" d="M439.4,367.5H415c-3.4,0-6.1-2.7-6.1-6.1V337c0-3.4,2.7-6.1,6.1-6.1h24.4c3.4,0,6.1,2.7,6.1,6.1v24.4
		C445.5,364.7,442.8,367.5,439.4,367.5z"/>
	<path class="st1" d="M439.4,368.1H415c-3.7,0-6.7-3-6.7-6.7V337c0-3.7,3-6.7,6.7-6.7h24.4c3.7,0,6.7,3,6.7,6.7v24.4
		C446.1,365.1,443.1,368.1,439.4,368.1z M415,331.5c-3,0-5.5,2.5-5.5,5.5v24.4c0,3,2.5,5.5,5.5,5.5h24.4c3,0,5.5-2.5,5.5-5.5V337
		c0-3-2.5-5.5-5.5-5.5H415z"/>
	<path class="st0" d="M530.5,367.5h-24.4c-3.4,0-6.1-2.7-6.1-6.1V337c0-3.4,2.7-6.1,6.1-6.1h24.4c3.4,0,6.1,2.7,6.1,6.1v24.4
		C536.5,364.7,533.8,367.5,530.5,367.5z"/>
	<path class="st1" d="M530.5,368.1h-24.4c-3.7,0-6.7-3-6.7-6.7V337c0-3.7,3-6.7,6.7-6.7h24.4c3.7,0,6.7,3,6.7,6.7v24.4
		C537.1,365.1,534.1,368.1,530.5,368.1z M506.1,331.5c-3,0-5.5,2.5-5.5,5.5v24.4c0,3,2.5,5.5,5.5,5.5h24.4c3,0,5.5-2.5,5.5-5.5V337
		c0-3-2.5-5.5-5.5-5.5H506.1z"/>
	<path class="st0" d="M530.5,265.9h-24.4c-3.4,0-6.1-2.7-6.1-6.1v-11.4c0-3.4,2.7-6.1,6.1-6.1h24.4c3.4,0,6.1,2.7,6.1,6.1v11.4
		C536.5,263.2,533.8,265.9,530.5,265.9z"/>
	<path class="st1" d="M530.5,266.5h-24.4c-3.7,0-6.7-3-6.7-6.7v-11.4c0-3.7,3-6.7,6.7-6.7h24.4c3.7,0,6.7,3,6.7,6.7v11.4
		C537.1,263.5,534.1,266.5,530.5,266.5z M506.1,242.9c-3,0-5.5,2.5-5.5,5.5v11.4c0,3,2.5,5.5,5.5,5.5h24.4c3,0,5.5-2.5,5.5-5.5
		v-11.4c0-3-2.5-5.5-5.5-5.5H506.1z"/>
	<path class="st0" d="M530.5,294.5h-24.4c-3.4,0-6.1-2.7-6.1-6.1V277c0-3.4,2.7-6.1,6.1-6.1h24.4c3.4,0,6.1,2.7,6.1,6.1v11.4
		C536.5,291.8,533.8,294.5,530.5,294.5z"/>
	<path class="st1" d="M530.5,295.1h-24.4c-3.7,0-6.7-3-6.7-6.7V277c0-3.7,3-6.7,6.7-6.7h24.4c3.7,0,6.7,3,6.7,6.7v11.4
		C537.1,292.1,534.1,295.1,530.5,295.1z M506.1,271.5c-3,0-5.5,2.5-5.5,5.5v11.4c0,3,2.5,5.5,5.5,5.5h24.4c3,0,5.5-2.5,5.5-5.5V277
		c0-3-2.5-5.5-5.5-5.5H506.1z"/>
	<path class="st0" d="M530.5,323.2h-24.4c-3.4,0-6.1-2.7-6.1-6.1v-11.4c0-3.4,2.7-6.1,6.1-6.1h24.4c3.4,0,6.1,2.7,6.1,6.1v11.4
		C536.5,320.4,533.8,323.2,530.5,323.2z"/>
	<path class="st1" d="M530.5,323.7h-24.4c-3.7,0-6.7-3-6.7-6.7v-11.4c0-3.7,3-6.7,6.7-6.7h24.4c3.7,0,6.7,3,6.7,6.7v11.4
		C537.1,320.8,534.1,323.7,530.5,323.7z M506.1,300.1c-3,0-5.5,2.5-5.5,5.5v11.4c0,3,2.5,5.5,5.5,5.5h24.4c3,0,5.5-2.5,5.5-5.5
		v-11.4c0-3-2.5-5.5-5.5-5.5H506.1z"/>
	<rect x="408.9" y="330.9" class="st0" width="36.6" height="36.6"/>
	<path class="st1" d="M445.5,368.1h-36.6c-0.3,0-0.6-0.3-0.6-0.6v-36.6c0-0.3,0.3-0.6,0.6-0.6h36.6c0.3,0,0.6,0.3,0.6,0.6v36.6
		C446.1,367.8,445.8,368.1,445.5,368.1z M409.5,366.9h35.4v-35.4h-35.4V366.9z"/>
	<path class="st1" d="M582.8,415.2c-6.9-24-17.6-46.8-31.8-67.3c-4.5-6.5-9.5-13-16.4-17c-6.8-4-15.9-5.2-22.6-1
		c-4.9,3.1-7.9,8.4-11.5,12.9c-3.6,4.5-8.8,8.8-14.5,8c-5.8-0.7-9.7-6.1-14.7-9.2c-11.1-6.9-28.1,0.8-30.3,13.7
		c-1.4,8.1,1.8,17.9-4.1,23.6c-5.3,5-13.8,2.8-21,4.2c-7.6,1.5-14.1,7.7-15.9,15.3c-3.8,16.3,8.4,22.2,21.4,23.9
		c17,2.2,34,3.9,51.1,4.9c34.5,2,69.1,1.4,103.5-1.8c2.4-0.2,5.2-0.6,6.6-2.6C584,420.5,583.5,417.7,582.8,415.2z"/>
	<path class="st0" d="M662.2,381.6H512.5c-9.2,0-16.6,7.4-16.6,16.6v5.1c0,9.2,7.4,16.6,16.6,16.6h149.7c9.2,0,16.6-7.4,16.6-16.6
		v-5.1C678.8,389.1,671.4,381.6,662.2,381.6z"/>
	<path class="st1" d="M662.2,420.5H512.5c-9.5,0-17.2-7.7-17.2-17.2v-5.1c0-9.5,7.7-17.2,17.2-17.2h149.7c9.5,0,17.2,7.7,17.2,17.2
		v5.1C679.4,412.8,671.7,420.5,662.2,420.5z M512.5,382.2c-8.8,0-16,7.2-16,16v5.1c0,8.8,7.2,16,16,16h149.7c8.8,0,16-7.2,16-16
		v-5.1c0-8.8-7.2-16-16-16H512.5z"/>
	<path class="st0" d="M501.3,462.3c16.7,2.2,34,3.4,51.9,3.4c70.1,0,132.7-18,174.2-46.3c3.9-2.6,2-8.7-2.7-8.7H400L501.3,462.3z"/>
	<path class="st1" d="M553.1,466.2c-17.5,0-35-1.1-51.9-3.4l0.2-1.1c16.9,2.2,34.3,3.4,51.8,3.4c67.4,0,130.8-16.8,173.9-46.2
		c1.6-1.1,2.2-2.9,1.6-4.7c-0.6-1.8-2.1-3-4-3H400v-1.2h324.6c2.4,0,4.4,1.5,5.1,3.8c0.7,2.3-0.1,4.7-2.1,6
		C684.4,449.3,620.8,466.2,553.1,466.2z"/>
	<path class="st0" d="M400,410.6h-18.4c-4.7,0-6.6,6.1-2.7,8.7c30.9,21.1,73.6,36.4,122.4,42.9L400,410.6z"/>
	<g>
		<path class="st1" d="M615.1,375.1c-0.2,0-0.4-0.1-0.5-0.3c-3-5.5,1-11.9,2.9-14.4c0.7-1,1.5-1.9,2.3-2.9c2.3-2.9,4.7-5.8,5.6-9.4
			c1.8-7.2-3.1-13.9-5.4-16.5c-2.2-2.5-4.8-4.8-7.3-6.9c-2.1-1.8-4.3-3.7-6.2-5.7c-8.6-8.9-13.2-21.6-12.4-34
			c0.8-12.3,7-24.4,16.6-32.2c0.2-0.2,0.6-0.2,0.8,0.1c0.2,0.2,0.2,0.6-0.1,0.8c-9.4,7.6-15.4,19.3-16.1,31.4
			c-0.7,12,3.8,24.4,12.1,33.1c1.9,2,4.1,3.9,6.1,5.7c2.5,2.2,5.2,4.5,7.4,7.1c5,5.7,7,12.1,5.6,17.5c-1,3.8-3.4,6.8-5.8,9.8
			c-0.8,0.9-1.5,1.9-2.2,2.8c-1.7,2.3-5.4,8.3-2.8,13.2c0.2,0.3,0,0.6-0.2,0.8C615.3,375.1,615.2,375.1,615.1,375.1z"/>
		<path class="st1" d="M630.7,375.1c-0.3,0-0.5-0.2-0.6-0.5c-1.5-8.2,4.8-15.6,9.6-20.5l0.9-0.9c5.2-5.2,10.6-10.6,11.3-17.6
			c0.6-6.1-2.4-12.5-9.1-19.1c-1.4-1.4-2.9-2.8-4.4-4.1c-4-3.7-8.2-7.5-10.9-12.3c-3.8-6.6-4.1-16.4,2-21.2c0.2-0.2,0.6-0.2,0.8,0.1
			c0.2,0.2,0.2,0.6-0.1,0.8c-5.6,4.4-5.3,13.5-1.7,19.7c2.7,4.7,6.7,8.4,10.7,12c1.5,1.3,3,2.7,4.4,4.2c6.9,6.9,10,13.6,9.4,20
			c-0.8,7.4-6.5,13.2-11.7,18.3l-0.9,0.9c-4.7,4.7-10.7,11.8-9.3,19.5c0.1,0.3-0.2,0.6-0.5,0.7C630.8,375.1,630.7,375.1,630.7,375.1
			z"/>
	</g>
	<path class="st1" d="M709.7,395.6c-0.3,0-0.6-0.3-0.6-0.6V125.6H550c-0.3,0-0.6-0.3-0.6-0.6s0.3-0.6,0.6-0.6h159.8
		c0.3,0,0.6,0.3,0.6,0.6v270C710.3,395.3,710.1,395.6,709.7,395.6z"/>
	<path class="st1" d="M688.4,101H550c-0.3,0-0.6-0.3-0.6-0.6c0-0.3,0.3-0.6,0.6-0.6h138.5c0.3,0,0.6,0.3,0.6,0.6
		C689,100.7,688.8,101,688.4,101z"/>
	<rect x="550" y="46.9" class="st1" width="35.1" height="35.1"/>
	<rect x="210.6" y="54.8" class="st0" width="53.6" height="85.6"/>
	<path class="st1" d="M264.2,140.9h-53.6c-0.3,0-0.6-0.3-0.6-0.6V54.8c0-0.3,0.3-0.6,0.6-0.6h53.6c0.3,0,0.6,0.3,0.6,0.6
		c0,0.3-0.3,0.6-0.6,0.6h-53.1v84.4h53.1c0.3,0,0.6,0.3,0.6,0.6S264.6,140.9,264.2,140.9z"/>
	<rect x="264.2" y="54.8" class="st0" width="185.8" height="85.6"/>
	<circle class="st1" cx="257.6" cy="97.6" r="25.6"/>
	<path class="st0" d="M255.2,111.6c-0.2,0-0.4-0.1-0.5-0.3l-10-14.6c-0.2-0.3-0.1-0.6,0.1-0.8c0.3-0.2,0.6-0.1,0.8,0.1l9.5,13.8
		L269.5,85c0.2-0.3,0.5-0.4,0.8-0.2c0.3,0.2,0.4,0.5,0.2,0.8l-14.8,25.7C255.6,111.4,255.4,111.5,255.2,111.6
		C255.2,111.6,255.2,111.6,255.2,111.6z"/>
	<path class="st0" d="M304.9,123.1h121.9H304.9z"/>
	<path class="st1" d="M426.9,123.7H304.9c-0.3,0-0.6-0.3-0.6-0.6s0.3-0.6,0.6-0.6h121.9c0.3,0,0.6,0.3,0.6,0.6
		S427.2,123.7,426.9,123.7z"/>
	<g>
		<path class="st1" d="M314.2,96.4v21V96.4z"/>
		<path class="st1" d="M314.2,118c-0.3,0-0.6-0.3-0.6-0.6v-21c0-0.3,0.3-0.6,0.6-0.6c0.3,0,0.6,0.3,0.6,0.6v21
			C314.8,117.7,314.5,118,314.2,118z"/>
	</g>
	<g>
		<path class="st1" d="M334.9,88.1v29.3V88.1z"/>
		<path class="st1" d="M334.9,118c-0.3,0-0.6-0.3-0.6-0.6V88.1c0-0.3,0.3-0.6,0.6-0.6c0.3,0,0.6,0.3,0.6,0.6v29.3
			C335.4,117.7,335.2,118,334.9,118z"/>
	</g>
	<path class="st1" d="M355.6,75.4v41.9V75.4z"/>
	<path class="st1" d="M355.6,118c-0.3,0-0.6-0.3-0.6-0.6V75.4c0-0.3,0.3-0.6,0.6-0.6c0.3,0,0.6,0.3,0.6,0.6v41.9
		C356.1,117.7,355.9,118,355.6,118z"/>
	<g>
		<path class="st1" d="M376.2,100.4v17V100.4z"/>
		<path class="st1" d="M376.2,118c-0.3,0-0.6-0.3-0.6-0.6v-17c0-0.3,0.3-0.6,0.6-0.6c0.3,0,0.6,0.3,0.6,0.6v17
			C376.8,117.7,376.6,118,376.2,118z"/>
	</g>
	<g>
		<path class="st1" d="M396.9,104.6v12.8V104.6z"/>
		<path class="st1" d="M396.9,118c-0.3,0-0.6-0.3-0.6-0.6v-12.8c0-0.3,0.3-0.6,0.6-0.6c0.3,0,0.6,0.3,0.6,0.6v12.8
			C397.5,117.7,397.2,118,396.9,118z"/>
	</g>
	<g>
		<path class="st1" d="M417.6,85.3v32.1V85.3z"/>
		<path class="st1" d="M417.6,118c-0.3,0-0.6-0.3-0.6-0.6V85.3c0-0.3,0.3-0.6,0.6-0.6c0.3,0,0.6,0.3,0.6,0.6v32.1
			C418.2,117.7,417.9,118,417.6,118z"/>
	</g>
	<path class="st4" d="M55.6,238.6c-38.2-14.8-50.3-63.2-23.3-94.1c12-13.8,23.6-24.7,31.1-26.2L55.6,238.6z"/>
	<path class="st1" d="M55.6,239.2c-0.1,0-0.1,0-0.2,0c-18.4-7.2-31.7-22.3-36.5-41.5c-4.7-19.2,0-38.7,13-53.5
		c14.1-16.1,24.7-25,31.4-26.4c0.2,0,0.4,0,0.5,0.1c0.1,0.1,0.2,0.3,0.2,0.5l-7.8,120.3c0,0.2-0.1,0.4-0.3,0.4
		C55.8,239.2,55.7,239.2,55.6,239.2z M62.8,119.1c-6.5,1.8-16.6,10.5-30,25.8c-12.7,14.6-17.3,33.7-12.7,52.5
		c4.6,18.6,17.3,33.3,35,40.4L62.8,119.1z"/>
	<path class="st4" d="M161.6,128.1c0.6-0.1,24.4,29,27.8,33.1c0,0,13.3-26,14.3-27.3c1-1.4,3.8-18,7.4-19.9c3.6-1.9,3.4,4.3,3.4,4.3
		s11.3-12.5,15.2-12.8c3.9-0.3,3.1,4.1,2.7,5.3c0,0,5.5-5.3,8.1-3.7c3.3,2,1.1,6.3,1.1,6.3s3.5-3.3,5.8-1.6c2.6,2-0.1,7.5-1.8,9.2
		c0,0,4.4-0.9,2.9,3.6c-1.2,3.5-7.4,12.8-10,19.9c-1.8,4.9-15.3,30.9-27.2,50.3c-7.1,11.6-22.3,14.9-33.6,7.5
		C162,192,141.4,177,132.3,164C132.3,164,130.5,131.2,161.6,128.1z"/>
	<path class="st1" d="M190.7,206.8c-4.7,0-9.4-1.4-13.5-4.1c-15.7-10.3-36.3-25.3-45.4-38.5c-0.1-0.1-0.1-0.2-0.1-0.3
		c0-0.3-0.4-8.4,3-17c3.2-8,10.5-17.8,26.8-19.4c0.4,0,0.7-0.1,13.4,15.2c6.1,7.3,12.1,14.7,14.4,17.5c2.3-4.4,13-25.4,14-26.6
		c0.3-0.3,0.8-2.6,1.4-4.7c1.9-7.3,3.7-14,6.2-15.4c1-0.5,1.9-0.6,2.6-0.1c1.1,0.7,1.4,2.3,1.6,3.5c2.9-3.1,11.2-11.7,14.7-12
		c1.3-0.1,2.3,0.2,3,1.1c0.7,0.9,0.8,2.1,0.7,3.2c1.9-1.6,5.3-3.9,7.5-2.6c2.1,1.3,2.3,3.4,2,5.2c1.4-0.8,3.4-1.7,5-0.5
		c0.8,0.6,1.2,1.5,1.3,2.6c0.2,2.1-1,4.7-2.2,6.4c0.7,0.1,1.4,0.3,2,0.9c0.7,0.8,0.7,2,0.2,3.5c-0.5,1.5-1.9,4-3.5,6.9
		c-2.2,4-5,8.9-6.5,13.1c-1.9,5.3-15.8,31.6-27.3,50.4c-3.5,5.7-9,9.7-15.6,11.1C194.4,206.6,192.5,206.8,190.7,206.8z M132.9,163.8
		c9.1,13,29.5,27.8,45,38c5.4,3.5,11.8,4.7,18,3.3c6.2-1.4,11.5-5.2,14.8-10.6c12.1-19.9,25.5-45.5,27.2-50.2
		c1.5-4.2,4.3-9.2,6.6-13.2c1.6-2.8,3-5.3,3.4-6.7c0.3-0.8,0.5-1.8,0-2.4c-0.5-0.6-1.8-0.5-2.2-0.4c-0.3,0-0.5-0.1-0.6-0.3
		c-0.1-0.2-0.1-0.5,0.1-0.7c1.2-1.2,2.9-4.4,2.7-6.6c-0.1-0.8-0.3-1.4-0.8-1.7c-1.9-1.4-5.1,1.5-5.1,1.5c-0.2,0.2-0.5,0.2-0.7,0
		c-0.2-0.2-0.3-0.5-0.2-0.7c0.1-0.2,1.9-3.8-0.9-5.5c-1.8-1.1-6.1,2.3-7.4,3.6c-0.2,0.2-0.5,0.2-0.7,0.1c-0.2-0.1-0.3-0.4-0.2-0.7
		c0.3-0.8,0.7-2.9-0.1-3.9c-0.4-0.5-1-0.7-2-0.6c-3,0.3-11.7,9.2-14.8,12.6c-0.2,0.2-0.4,0.2-0.6,0.1c-0.2-0.1-0.4-0.3-0.4-0.6
		c0-1.2-0.2-3.4-1.1-3.9c-0.1-0.1-0.5-0.3-1.4,0.2c-2.2,1.2-4.4,9.6-5.6,14.6c-0.8,3.1-1.2,4.6-1.6,5.1c-0.8,1.1-10.6,20-14.3,27.2
		c-0.1,0.2-0.3,0.3-0.5,0.3c-0.2,0-0.4-0.1-0.5-0.2c-3.6-4.4-25.3-30.9-27.5-32.9c-12.5,1.3-21.2,7.6-25.6,18.7
		C132.7,155.1,132.8,162.6,132.9,163.8z M161.7,128.7C161.7,128.7,161.7,128.7,161.7,128.7C161.7,128.7,161.7,128.7,161.7,128.7z
		 M161.6,128.1L161.6,128.1L161.6,128.1z"/>
	<path class="st1" d="M221.7,123.1c-0.1,0-0.2,0-0.3-0.1c-0.3-0.2-0.3-0.6-0.1-0.8c3.3-4.4,6.9-8.5,10.9-12.2c0.2-0.2,0.6-0.2,0.8,0
		c0.2,0.2,0.2,0.6,0,0.8c-3.9,3.7-7.5,7.7-10.7,12.1C222,123.1,221.9,123.1,221.7,123.1z"/>
	<path class="st1" d="M230.1,128.2c-0.1,0-0.2,0-0.3-0.1c-0.3-0.2-0.3-0.5-0.1-0.8c3.6-5.1,7.5-10,11.7-14.7c0.2-0.2,0.6-0.3,0.8,0
		c0.2,0.2,0.3,0.6,0,0.8c-4.1,4.6-8.1,9.5-11.6,14.6C230.5,128.2,230.3,128.2,230.1,128.2z"/>
	<path class="st1" d="M237.4,131.6c-0.1,0-0.2,0-0.3-0.1c-0.3-0.2-0.3-0.6-0.1-0.8c2.7-3.6,5.6-7.2,8.7-10.5c0.2-0.2,0.6-0.3,0.8,0
		c0.2,0.2,0.3,0.6,0,0.8c-3,3.3-5.9,6.8-8.6,10.4C237.7,131.5,237.5,131.6,237.4,131.6z"/>
	<path class="st1" d="M208.6,127.1c-0.1,0-0.2,0-0.3-0.1c-0.3-0.2-0.3-0.5-0.2-0.8c1.9-2.9,3.9-5.7,6.1-8.4c0.2-0.2,0.6-0.3,0.8-0.1
		c0.2,0.2,0.3,0.6,0.1,0.8c-2.1,2.7-4.2,5.5-6,8.3C209,127,208.8,127.1,208.6,127.1z"/>
	<path class="st1" d="M196.3,173.1c-0.2,0-0.4-0.1-0.5-0.3c-2.1-4-4.5-7.8-7.1-11.5c-0.2-0.3-0.1-0.6,0.1-0.8
		c0.3-0.2,0.6-0.1,0.8,0.1c2.7,3.7,5.1,7.6,7.2,11.6c0.1,0.3,0,0.6-0.2,0.8C196.5,173.1,196.4,173.1,196.3,173.1z"/>
	<path class="st5" d="M117.7,206.2l17.7-38.2c0,0,10.9-26.9,27.7-40.3c0,0-7.3-11.2-19-14.6c-6.2-1.8-63.5-4.8-79.6,0L54,118.1
		l1.1,14.5c0,0-21.3,39.5-23.1,56.8c0,0,0,8.1,11.6,9.2C54.5,199.6,117.7,206.2,117.7,206.2z"/>
	<path class="st0" d="M47.3,412.3c-0.3,0.2-13.6,14.5-13.6,14.5s2.9,32.3,4.4,52.6c0.4,5.8,5.3,10.2,11.1,10.2h66.5
		c3.4,0,5.3-4,3-6.7l-9.9-11.4L97.5,419L47.3,412.3z"/>
	<path class="st1" d="M115.7,490.2H49.2c-6.1,0-11.2-4.7-11.6-10.8c-1.5-20-4.4-52.2-4.4-52.6c0-0.2,0-0.3,0.2-0.4
		c6.1-6.6,13.4-14.4,13.7-14.6c0.1-0.1,0.3-0.1,0.4-0.1l50.2,6.7c0.2,0,0.4,0.2,0.5,0.5l11.3,52.4l9.8,11.3c1.2,1.4,1.5,3.3,0.7,4.9
		C119.1,489.2,117.5,490.2,115.7,490.2z M34.3,427c0.3,3.1,2.9,33.3,4.4,52.3c0.4,5.4,5,9.7,10.5,9.7h66.5c1.4,0,2.6-0.8,3.1-2
		c0.6-1.2,0.4-2.7-0.5-3.7l-9.9-11.4c-0.1-0.1-0.1-0.2-0.1-0.3l-11.2-52.2l-49.6-6.6C46.3,414.1,39.2,421.7,34.3,427z"/>
	<path class="st1" d="M70.9,473.5c-10.3,0-20.5-0.5-30.7-1.6c-0.3,0-0.5-0.3-0.5-0.6c0-0.3,0.3-0.5,0.6-0.5
		c19.9,2.1,40,2.2,59.9,0.1c0.3,0,0.6,0.2,0.6,0.5c0,0.3-0.2,0.6-0.5,0.6C90.5,473,80.7,473.5,70.9,473.5z"/>
	<g>
		<path class="st1" d="M46.2,184.4c0,0,54.7,5,67.7,13.2c0,0,67.5,89.4,75.3,103.5c9.8,17.6,3.6,69.2-10.2,108.9l-68.8-26l19-47.1
			l-42.7-69.2L103.6,422l-69.8,4.8c0,0-9.3-141.1-3.2-214c0.8-10.1,5.3-19.5,12.8-26.3C44.4,185.5,45.4,184.7,46.2,184.4z"/>
		<path class="st1" d="M33.7,427.4c-0.1,0-0.3-0.1-0.4-0.1c-0.1-0.1-0.2-0.2-0.2-0.4c-0.1-1.4-9.3-142-3.2-214.1
			c0.5-6,2.3-11.9,5.3-17c0.2-0.3,0.5-0.4,0.8-0.2c0.3,0.2,0.4,0.5,0.2,0.8c-2.9,5-4.6,10.7-5.1,16.6c-5.8,69.7,2.5,203.4,3.2,213.4
			l68.7-4.7l-17-153.7c0-0.3,0.1-0.5,0.4-0.6c0.3-0.1,0.5,0,0.7,0.2l42.7,69.2c0.1,0.2,0.1,0.3,0,0.5l-18.8,46.5l67.7,25.6
			c12.9-37.7,20-89.8,10-107.9c-6.5-11.7-55-76.5-69.7-96.1c-0.2-0.3-0.1-0.6,0.1-0.8c0.3-0.2,0.6-0.1,0.8,0.1
			c14.7,19.6,63.3,84.5,69.8,96.2c10.2,18.4,3,71.4-10.1,109.4c-0.1,0.1-0.2,0.3-0.3,0.3c-0.1,0.1-0.3,0.1-0.4,0l-68.8-26
			c-0.1-0.1-0.3-0.2-0.3-0.3c-0.1-0.1-0.1-0.3,0-0.4l18.9-46.8l-41.2-66.8L104.1,422c0,0.2,0,0.3-0.1,0.4c-0.1,0.1-0.2,0.2-0.4,0.2
			L33.7,427.4C33.7,427.4,33.7,427.4,33.7,427.4z"/>
		<path class="st1" d="M84.7,266.3c-0.2,0-0.4-0.1-0.5-0.3l-18-29.6c-1.1-1.8-2.2-3.7-3.8-5c-1.7-1.5-3.8-2.1-5.5-1.8
			c-0.3,0.1-0.6-0.1-0.7-0.4c-0.1-0.3,0.1-0.6,0.4-0.7c2.1-0.5,4.5,0.3,6.5,2c1.7,1.5,2.9,3.4,4,5.3l18,29.6
			c0.2,0.3,0.1,0.6-0.2,0.8C85,266.3,84.9,266.3,84.7,266.3z"/>
	</g>
	<path class="st0" d="M110.1,384c0,0-15.3,31.8-23.7,50.3c-2.4,5.3-2,11.5,1.1,16.4l18.3,29.4c3.7,5.9,10.1,9.5,17.1,9.5h31.2
		c5.1,0,7.9-5.8,4.9-9.8l-14.3-19c0,0,16.8-38.4,23-55.1L110.1,384z"/>
	<path class="st1" d="M154.1,490.2h-31.2c-7.2,0-13.8-3.6-17.6-9.8L87,451c-3.2-5.1-3.6-11.5-1.1-17c8.4-18.3,23.6-50,23.7-50.3
		c0.1-0.3,0.4-0.4,0.7-0.3l57.5,21.7c0.3,0.1,0.4,0.4,0.3,0.7c-5.8,15.7-21.3,51.1-22.9,54.8l14.1,18.7c1.5,2,1.8,4.7,0.6,7
		C158.9,488.8,156.6,490.2,154.1,490.2z M110.4,384.8c-1.9,4-15.7,32.7-23.5,49.8c-2.4,5.1-2,11.1,1,15.9l18.3,29.4
		c3.6,5.8,9.8,9.2,16.6,9.2h31.2c2.2,0,4-1.2,5-3.1c1-1.9,0.8-4.1-0.5-5.8l-14.3-19c-0.1-0.2-0.2-0.4-0.1-0.6
		c0.2-0.4,16.5-37.8,22.8-54.5L110.4,384.8z"/>
	<path class="st1" d="M137.7,461C137.7,461,137.7,461,137.7,461c-19.7-0.3-39-12.2-48.2-29.6c-0.1-0.3,0-0.6,0.2-0.8
		c0.3-0.1,0.6,0,0.8,0.2c8.9,17,27.9,28.7,47.1,29c0.3,0,0.6,0.3,0.6,0.6C138.2,460.7,138,461,137.7,461z"/>
	<path class="st0" d="M132.3,98l-4.1,7.7c-1.2,2.3,0.1,5.2,2.7,5.7l1.5,0.3c0,0-14.9,10-34.7,0l13.1-4.6c0,0,8.8-20.4,9.3-20.2
		C120.5,87.1,132.3,98,132.3,98z"/>
	<path class="st1" d="M132.3,112.3c0,0-0.1,0-0.1,0l-1.5-0.3c-1.4-0.3-2.6-1.2-3.2-2.5c-0.6-1.3-0.6-2.8,0.1-4l4.1-7.7
		c0.1-0.3,0.5-0.4,0.8-0.2c0.3,0.2,0.4,0.5,0.2,0.8l-4.1,7.7c-0.5,0.9-0.5,2-0.1,3c0.5,1,1.3,1.6,2.4,1.8l1.5,0.3
		c0.3,0.1,0.5,0.4,0.5,0.7C132.8,112.1,132.6,112.3,132.3,112.3z"/>
	<path class="st1" d="M137.8,74.8c1.4-2.8,2.9-6,2.6-9.2c-0.3-3.5-2.7-6.2-5.4-7.4c-2.7-1.2-5.7-1-8.6-0.6
		c-15.8,2.3-89.7,35.4-79,58.7c5.3,11.6,22.5,13.6,34,15.1c10.5,1.4,21.2-3.8,30.1-11c4.9-4,8.6-9.7,11.6-15.8
		c2.9-5.8,5.6-11.8,8.6-17.6C133.6,83,135.7,78.9,137.8,74.8z"/>
	<path class="st0" d="M123,93.8c0.8,7.3,8.9,9.7,14,9.1c9.1-1,8.1-16.9,0-31c0,0-7.1,1-8.8,4.5c-0.9,1.8,7.3,10.5-0.7,11
		c0,0-1.3-6.4-5.9-5.8C117,82.2,117.3,92.8,123,93.8z"/>
	<path class="st1" d="M135.5,103.5c-5.2,0-12-2.7-13-9.3c-3.2-0.8-4.7-4.4-4.6-7.6c0-3.1,1.5-5.4,3.6-5.7c3.8-0.5,5.8,3.3,6.4,5.7
		c1.2-0.1,1.9-0.5,2.3-1.1c0.8-1.3-0.5-3.8-1.5-5.7c-0.9-1.8-1.5-3-1.1-3.9c1.8-3.7,8.9-4.7,9.2-4.8c0.2,0,0.5,0.1,0.6,0.3
		c6,10.5,8.2,22,5.2,27.9c-1.2,2.3-3.1,3.7-5.6,4C136.6,103.5,136,103.5,135.5,103.5z M122.1,82.1c-0.2,0-0.3,0-0.5,0
		c-1.8,0.2-2.6,2.4-2.6,4.5c0,2.9,1.4,6,4.1,6.5c0.3,0,0.5,0.2,0.5,0.5c0.8,6.8,8.4,9.1,13.3,8.6c2.1-0.2,3.7-1.4,4.7-3.3
		c2.8-5.4,0.7-16.5-5-26.4c-1.5,0.3-6.6,1.4-8,4.1c-0.1,0.3,0.6,1.8,1.1,2.8c1.1,2.2,2.5,5,1.4,6.8c-0.6,1-1.8,1.6-3.7,1.7
		c-0.3,0-0.5-0.2-0.6-0.5C126.9,87.5,125.7,82.1,122.1,82.1z"/>
	<path class="st1" d="M126.5,92.5c-0.2,0-0.5-0.1-0.5-0.4c-0.5-1.4-1.6-2.5-3-3c-0.3-0.1-0.5-0.4-0.3-0.7c0.1-0.3,0.4-0.5,0.7-0.3
		c1.7,0.6,3.1,2,3.7,3.7c0.1,0.3-0.1,0.6-0.4,0.7C126.7,92.5,126.6,92.5,126.5,92.5z"/>
	<path class="st1" d="M115.6,57c0,0-3.1-21-17.5-11.3C83.7,55.4,95.7,68.6,115.6,57z"/>
	<path class="st1" d="M357.9,490.2H10.6c-0.3,0-0.6-0.3-0.6-0.6v-52.8c0-0.3,0.3-0.6,0.6-0.6c0.3,0,0.6,0.3,0.6,0.6V489h346.8
		c0.3,0,0.6,0.3,0.6,0.6C358.5,489.9,358.2,490.2,357.9,490.2z"/>
</g>
</svg>
